{"title":"Lucy 2014 BDRip x264 AAC-MiLLENiUM","uid":11555120,"size":930443782,"categoryP":"video","categoryS":"movies","magnet":"?xt=urn:btih:e22aa986e53f1cf63348482f365448ca4cb9b05a&amp;dn=Lucy+2014+BDRip+x264+AAC-MiLLENiUM&amp;tr=udp%3A%2F%2Ftracker.openbittorrent.com%3A80&amp;tr=udp%3A%2F%2Fopen.demonii.com%3A1337&amp;tr=udp%3A%2F%2Ftracker.coppersurfer.tk%3A6969&amp;tr=udp%3A%2F%2Fexodus.desync.com%3A6969","seeders":2,"leechers":0,"uploader":"TvTeam","files":4,"time":1416816351,"description":" &lt;a href=&quot;http://www.torrenting.com&quot; rel=&quot;nofollow&quot; target=&quot;_NEW&quot;&gt;http://www.torrenting.com&lt;/a&gt;\n\nSign up is OPEN - for time being. Come and have fun.\n\n------------------------------------------------------------------[img]http://s18.postimg.org/5to81xmo9/lucy720p_22_11_2014_11_16_44.jpg[/img]\n \n[color=red][b]Lucy 2014 BDRip x264 AAC-MiLLENiUM[/b][/color]\n\n[color=red]General[/color]\n\nSource...............: 1080p.Blu-ray.AVC.DTS-HD.MA.5.1-NiP [THANKS]\nIMDb Information.... : http://www.imdb.com/title/tt2872732/\nSample Included......: yes\nSubtitles............: YES HARDCODED FOR FOREIGN PARTS ONLY\n\nGeneral\nComplete name                            : Lucy 2014 BDRip x264 AAC-MiLLENiUM.mp4\nFormat                                   : MPEG-4\nFormat profile                           : Base Media\nCodec ID                                 : isom\nFile size                                : 871 MiB\nDuration                                 : 1h 29mn\nOverall bit rate mode                    : Variable\nOverall bit rate                         : 1 363 Kbps\nEncoded date                             : UTC 2014-11-24 06:08:55\nTagged date                              : UTC 2014-11-24 06:08:55\n\nVideo\nID                                       : 1\nFormat                                   : AVC\nFormat/Info                              : Advanced Video Codec\nFormat profile                           : &lt;a class=&quot;__cf_email__&quot; href=&quot;/cdn-cgi/l/email-protection&quot; data-cfemail=&quot;622a0b050a222e564c53&quot;&gt;[email&amp;#160;protected]&lt;/a&gt;&lt;script cf-hash='f9e31' type=&quot;text/javascript&quot;&gt;\n/* &lt;![CDATA[ */!function(){try{var t=&quot;currentScript&quot;in document?document.currentScript:function(){for(var t=document.getElementsByTagName(&quot;script&quot;),e=t.length;e--;)if(t[e].getAttribute(&quot;cf-hash&quot;))return t[e]}();if(t&amp;&amp;t.previousSibling){var e,r,n,i,c=t.previousSibling,a=c.getAttribute(&quot;data-cfemail&quot;);if(a){for(e=&quot;&quot;,r=parseInt(a.substr(0,2),16),n=2;a.length-n;n+=2)i=parseInt(a.substr(n,2),16)^r,e+=String.fromCharCode(i);e=document.createTextNode(e),c.parentNode.replaceChild(e,c)}}}catch(u){}}();/* ]]&gt; */&lt;/script&gt;\nFormat settings, CABAC                   : Yes\nFormat settings, ReFrames                : 3 frames\nCodec ID                                 : avc1\nCodec ID/Info                            : Advanced Video Coding\nDuration                                 : 1h 29mn\nBit rate mode                            : Variable\nBit rate                                 : 1 007 Kbps\nMaximum bit rate                         : 40.0 Mbps\nWidth                                    : 720 pixels\nHeight                                   : 304 pixels\nDisplay aspect ratio                     : 2.35:1\nFrame rate mode                          : Constant\nFrame rate                               : 23.976 fps\nColor space                              : YUV\nChroma subsampling                       : 4:2:0\nBit depth                                : 8 bits\nScan type                                : Progressive\nBits/(Pixel*Frame)                       : 0.192\nStream size                              : 644 MiB (74%)\nWriting library                          : x264 core 142 r2479 dd79a61\nColor range                              : Full\n\nAudio\nID                                       : 2\nFormat                                   : AAC\nFormat/Info                              : Advanced Audio Codec\nFormat profile                           : LC\nCodec ID                                 : 40\nDuration                                 : 1h 29mn\nBit rate mode                            : Variable\nBit rate                                 : 353 Kbps\nMaximum bit rate                         : 429 Kbps\nChannel(s)                               : 6 channels\nChannel positions                        : Front: L C R, Side: L R, LFE\nSampling rate                            : 48.0 KHz\nCompression mode                         : Lossy\nStream size                              : 225 MiB (26%)\nLanguage                                 : English\nEncoded date                             : UTC 2014-11-24 03:27:04\nTagged date                              : UTC 2014-11-24 06:11:10\n\n[color=red]Plot[/color]\n\nA woman, accidentally caught in a dark deal, turns the tables on her captors and transforms into a merciless warrior evolved beyond human logic.\n \n[color=red]Screenshots[/color]\n\n[img]http://s29.postimg.org/g5vb3lgmf/vlcsnap_2014_11_24_06h15m40s208.jpg[/img]\n[img]http://s29.postimg.org/myvnzv7fr/vlcsnap_2014_11_24_06h19m34s237.jpg[/img]\n[img]http://s29.postimg.org/ioh04a2cn/vlcsnap_2014_11_24_06h20m51s223.jpg[/img]\n[img]http://s29.postimg.org/l9mkrsrqf/vlcsnap_2014_11_24_06h22m28s176.jpg[/img]\n[img]http://s29.postimg.org/5zmpklw87/vlcsnap_2014_11_24_06h22m56s182.jpg[/img]\n[img]http://s29.postimg.org/dtsd34acn/vlcsnap_2014_11_24_06h23m08s72.jpg[/img]\n[img]http://s29.postimg.org/tgjmgho4n/vlcsnap_2014_11_24_06h23m26s248.jpg[/img]","torrent":{"xt":"urn:btih:e22aa986e53f1cf63348482f365448ca4cb9b05a","amp;dn":"Lucy+2014+BDRip+x264+AAC-MiLLENiUM","amp;tr":["udp%3A%2F%2Ftracker.openbittorrent.com%3A80","udp%3A%2F%2Fopen.demonii.com%3A1337","udp%3A%2F%2Ftracker.coppersurfer.tk%3A6969","udp%3A%2F%2Fexodus.desync.com%3A6969"],"infoHash":"e22aa986e53f1cf63348482f365448ca4cb9b05a","infoHashBuffer":{"type":"Buffer","data":[226,42,169,134,229,63,28,246,51,72,72,47,54,84,72,202,76,185,176,90]},"announce":[],"urlList":[]}}